<svg xmlns="http://www.w3.org/2000/svg" xmlns:xlink="http://www.w3.org/1999/xlink" preserveAspectRatio="xMidYMid" width="17" height="17" viewBox="0 0 17 17">
  <defs>
    <style>
      .cls-1 {
        fill: #505050;
        fill-rule: evenodd;
      }
    </style>
  </defs>
  <path d="M9.791,16.901 C5.159,17.613 0.811,14.424 0.099,9.791 C-0.613,5.159 2.576,0.810 7.209,0.098 C11.841,-0.613 16.189,2.576 16.901,7.208 C17.614,11.841 14.424,16.189 9.791,16.901 ZM15.941,7.356 C15.311,3.253 11.460,0.428 7.356,1.059 C3.253,1.689 0.428,5.540 1.059,9.643 C1.690,13.746 5.541,16.572 9.644,15.941 C13.746,15.310 16.571,11.459 15.941,7.356 ZM11.546,11.160 C11.423,11.179 11.294,11.151 11.185,11.072 L8.213,8.891 C8.109,8.815 8.040,8.701 8.020,8.573 L7.182,3.123 C7.142,2.858 7.323,2.610 7.589,2.569 C7.854,2.528 8.102,2.709 8.143,2.975 L8.950,8.227 L11.760,10.288 C11.976,10.447 12.023,10.751 11.864,10.967 C11.784,11.076 11.669,11.141 11.546,11.160 Z" class="cls-1"/>
</svg>
