<svg xmlns="http://www.w3.org/2000/svg" xmlns:xlink="http://www.w3.org/1999/xlink" preserveAspectRatio="xMidYMid" width="18" height="17" viewBox="0 0 18 17">
  <defs>
    <style>
      .cls-1 {
        fill: #eeeeee;
        fill-rule: evenodd;
      }
    </style>
  </defs>
  <path d="M14.494,11.695 C13.927,13.430 12.247,14.692 10.267,14.692 L9.834,14.692 C8.136,14.692 6.557,15.309 5.390,16.429 L4.934,16.868 C4.844,16.954 4.732,17.000 4.619,17.000 C4.568,17.000 4.517,16.990 4.468,16.971 C4.303,16.905 4.200,16.743 4.200,16.549 L4.200,14.682 C1.894,14.529 -0.000,12.633 -0.000,10.405 L-0.000,7.137 C-0.000,5.093 1.509,3.381 3.514,2.973 C4.093,1.214 5.798,-0.000 7.733,-0.000 L13.567,-0.000 C16.012,-0.000 18.000,1.909 18.000,4.257 L18.000,7.524 C18.000,9.490 16.505,11.248 14.494,11.695 ZM3.795,3.512 L3.639,3.537 C1.905,3.890 0.600,5.369 0.600,7.137 L0.600,10.405 C0.600,12.320 2.220,13.949 4.200,14.100 L4.200,13.207 C4.200,13.047 4.334,12.919 4.500,12.919 C4.666,12.919 4.800,13.047 4.800,13.207 L4.800,14.115 L4.800,14.403 L4.800,16.181 L4.966,16.022 C6.246,14.793 7.975,14.115 9.834,14.115 L10.267,14.115 C11.971,14.115 13.417,13.033 13.915,11.541 L13.960,11.379 C14.001,11.237 14.030,11.096 14.053,10.955 C14.058,10.924 14.064,10.893 14.068,10.862 C14.074,10.813 14.079,10.764 14.084,10.714 C14.092,10.612 14.100,10.510 14.100,10.405 L14.100,7.137 C14.100,5.108 12.381,3.457 10.267,3.457 L4.433,3.457 C4.411,3.457 4.388,3.460 4.366,3.460 C4.281,3.461 4.196,3.466 4.113,3.472 C4.011,3.481 3.905,3.494 3.795,3.512 ZM17.400,4.257 C17.400,2.227 15.681,0.576 13.567,0.576 L7.733,0.576 C6.156,0.576 4.753,1.508 4.178,2.889 C4.259,2.884 4.338,2.882 4.416,2.882 C4.422,2.882 4.427,2.881 4.433,2.881 L10.267,2.881 C12.406,2.881 14.196,4.343 14.610,6.281 C14.669,6.557 14.700,6.844 14.700,7.137 L14.700,10.405 C14.700,10.528 14.692,10.652 14.680,10.777 C14.674,10.850 14.663,10.923 14.653,10.995 C14.649,11.018 14.648,11.041 14.644,11.063 C16.243,10.582 17.400,9.132 17.400,7.524 L17.400,4.257 ZM10.800,8.646 C10.800,8.805 10.666,8.934 10.500,8.934 L4.200,8.934 C4.034,8.934 3.900,8.805 3.900,8.646 C3.900,8.486 4.034,8.358 4.200,8.358 L10.500,8.358 C10.666,8.358 10.800,8.486 10.800,8.646 ZM4.200,10.374 L10.500,10.374 C10.666,10.374 10.800,10.503 10.800,10.662 C10.800,10.821 10.666,10.950 10.500,10.950 L4.200,10.950 C4.034,10.950 3.900,10.821 3.900,10.662 C3.900,10.503 4.034,10.374 4.200,10.374 ZM9.000,6.917 L5.700,6.917 C5.534,6.917 5.400,6.788 5.400,6.629 C5.400,6.470 5.534,6.341 5.700,6.341 L9.000,6.341 C9.166,6.341 9.300,6.470 9.300,6.629 C9.300,6.788 9.166,6.917 9.000,6.917 Z" class="cls-1"/>
</svg>
