<svg xmlns="http://www.w3.org/2000/svg" xmlns:xlink="http://www.w3.org/1999/xlink" preserveAspectRatio="xMidYMid" width="612" height="510" viewBox="0 0 612 510">
  <defs>
    <style>
      .cls-1 {
        fill: #606060;
        fill-rule: evenodd;
      }
    </style>
  </defs>
  <path d="M586.500,510.000 L25.500,510.000 C10.200,510.000 -0.000,499.800 -0.000,484.500 L-0.000,433.500 C-0.000,418.200 10.200,408.000 25.500,408.000 L586.500,408.000 C601.800,408.000 612.000,418.200 612.000,433.500 L612.000,484.500 C612.000,499.800 601.800,510.000 586.500,510.000 ZM586.500,306.000 L25.500,306.000 C10.200,306.000 -0.000,295.800 -0.000,280.500 L-0.000,229.500 C-0.000,214.200 10.200,204.000 25.500,204.000 L586.500,204.000 C601.800,204.000 612.000,214.200 612.000,229.500 L612.000,280.500 C612.000,295.800 601.800,306.000 586.500,306.000 ZM586.500,102.000 L25.500,102.000 C10.200,102.000 -0.000,91.800 -0.000,76.500 L-0.000,25.500 C-0.000,10.200 10.200,-0.000 25.500,-0.000 L586.500,-0.000 C601.800,-0.000 612.000,10.200 612.000,25.500 L612.000,76.500 C612.000,91.800 601.800,102.000 586.500,102.000 Z" class="cls-1"/>
</svg>
